<?xml version="1.0" encoding="UTF-8"?>
<svg width="1200" height="600" viewBox="0 0 1200 600" xmlns="http://www.w3.org/2000/svg">
  <defs>
    <radialGradient id="pulse" cx="50%" cy="50%" r="60%">
      <stop offset="0%" stop-color="#9aa8ff" stop-opacity="0.30"/>
      <stop offset="60%" stop-color="#9aa8ff" stop-opacity="0.10"/>
      <stop offset="100%" stop-color="#9aa8ff" stop-opacity="0"/>
    </radialGradient>
    <linearGradient id="arc" x1="0" y1="0" x2="1" y2="0">
      <stop offset="0" stop-color="#9aa8ff" stop-opacity="0.85"/>
      <stop offset="1" stop-color="#81D4FA" stop-opacity="0.85"/>
    </linearGradient>
  </defs>
  <rect width="1200" height="600" fill="none"/>
  <circle cx="360" cy="300" r="180" fill="url(#pulse)"/>
  <circle cx="360" cy="300" r="260" fill="url(#pulse)" opacity="0.7"/>
  <g fill="none" stroke="url(#arc)" stroke-width="5" stroke-linecap="round" opacity="0.9">
    <path d="M220,300 C260,240 320,210 360,210 C400,210 460,240 500,300"/>
    <path d="M240,340 C280,290 320,270 360,270 C400,270 440,290 480,340"/>
    <path d="M260,380 C300,340 330,330 360,330 C390,330 420,340 460,380"/>
    <path d="M280,420 C320,390 340,390 360,390 C380,390 400,390 440,420"/>
  </g>
  <circle cx="360" cy="300" r="6" fill="#FFA94D" opacity="0.9"/>
</svg>
